<mxfile host="app.diagrams.net" agent="Mozilla/5.0 (Windows NT 10.0; Win64; x64) AppleWebKit/537.36 (KHTML, like Gecko) Chrome/138.0.0.0 Safari/537.36" version="27.1.6">
  <diagram name="Page-1" id="VhBguyIQwRQe7k8Ecoju">
    <mxGraphModel dx="1042" dy="562" grid="1" gridSize="10" guides="1" tooltips="1" connect="1" arrows="1" fold="1" page="1" pageScale="1" pageWidth="827" pageHeight="1169" math="0" shadow="0">
      <root>
        <mxCell id="0" />
        <mxCell id="1" parent="0" />
        <mxCell id="Ec5-KTIiF-ZfDrJX26kf-4" style="edgeStyle=orthogonalEdgeStyle;rounded=0;orthogonalLoop=1;jettySize=auto;html=1;" edge="1" parent="1" source="Ec5-KTIiF-ZfDrJX26kf-3">
          <mxGeometry relative="1" as="geometry">
            <mxPoint x="400" y="260" as="targetPoint" />
            <Array as="points">
              <mxPoint x="398" y="225" />
              <mxPoint x="401" y="225" />
            </Array>
          </mxGeometry>
        </mxCell>
        <mxCell id="Ec5-KTIiF-ZfDrJX26kf-3" value="Start" style="strokeWidth=2;html=1;shape=mxgraph.flowchart.start_1;whiteSpace=wrap;rotation=0;" vertex="1" parent="1">
          <mxGeometry x="340" y="120" width="116" height="70" as="geometry" />
        </mxCell>
        <mxCell id="Ec5-KTIiF-ZfDrJX26kf-7" style="edgeStyle=orthogonalEdgeStyle;rounded=0;orthogonalLoop=1;jettySize=auto;html=1;" edge="1" parent="1" source="Ec5-KTIiF-ZfDrJX26kf-6">
          <mxGeometry relative="1" as="geometry">
            <mxPoint x="390" y="380" as="targetPoint" />
          </mxGeometry>
        </mxCell>
        <mxCell id="Ec5-KTIiF-ZfDrJX26kf-6" value="Input number" style="shape=parallelogram;html=1;strokeWidth=2;perimeter=parallelogramPerimeter;whiteSpace=wrap;rounded=1;arcSize=12;size=0.23;" vertex="1" parent="1">
          <mxGeometry x="340" y="250" width="100" height="60" as="geometry" />
        </mxCell>
        <mxCell id="Ec5-KTIiF-ZfDrJX26kf-9" style="edgeStyle=orthogonalEdgeStyle;rounded=0;orthogonalLoop=1;jettySize=auto;html=1;" edge="1" parent="1" source="Ec5-KTIiF-ZfDrJX26kf-8">
          <mxGeometry relative="1" as="geometry">
            <mxPoint x="560" y="430" as="targetPoint" />
          </mxGeometry>
        </mxCell>
        <mxCell id="Ec5-KTIiF-ZfDrJX26kf-11" value="YES" style="edgeLabel;html=1;align=center;verticalAlign=middle;resizable=0;points=[];" vertex="1" connectable="0" parent="Ec5-KTIiF-ZfDrJX26kf-9">
          <mxGeometry x="0.0604" y="-1" relative="1" as="geometry">
            <mxPoint as="offset" />
          </mxGeometry>
        </mxCell>
        <mxCell id="Ec5-KTIiF-ZfDrJX26kf-10" style="edgeStyle=orthogonalEdgeStyle;rounded=0;orthogonalLoop=1;jettySize=auto;html=1;" edge="1" parent="1" source="Ec5-KTIiF-ZfDrJX26kf-8">
          <mxGeometry relative="1" as="geometry">
            <mxPoint x="230" y="430" as="targetPoint" />
          </mxGeometry>
        </mxCell>
        <mxCell id="Ec5-KTIiF-ZfDrJX26kf-12" value="NO" style="edgeLabel;html=1;align=center;verticalAlign=middle;resizable=0;points=[];" vertex="1" connectable="0" parent="Ec5-KTIiF-ZfDrJX26kf-10">
          <mxGeometry x="-0.4824" y="1" relative="1" as="geometry">
            <mxPoint x="1" as="offset" />
          </mxGeometry>
        </mxCell>
        <mxCell id="Ec5-KTIiF-ZfDrJX26kf-8" value="Check if the number is divisible by 2" style="strokeWidth=2;html=1;shape=mxgraph.flowchart.decision;whiteSpace=wrap;" vertex="1" parent="1">
          <mxGeometry x="340" y="380" width="100" height="100" as="geometry" />
        </mxCell>
        <mxCell id="Ec5-KTIiF-ZfDrJX26kf-16" style="edgeStyle=orthogonalEdgeStyle;rounded=0;orthogonalLoop=1;jettySize=auto;html=1;" edge="1" parent="1" source="Ec5-KTIiF-ZfDrJX26kf-13">
          <mxGeometry relative="1" as="geometry">
            <mxPoint x="190" y="500" as="targetPoint" />
          </mxGeometry>
        </mxCell>
        <mxCell id="Ec5-KTIiF-ZfDrJX26kf-13" value="Odd" style="shape=parallelogram;html=1;strokeWidth=2;perimeter=parallelogramPerimeter;whiteSpace=wrap;rounded=1;arcSize=12;size=0.23;" vertex="1" parent="1">
          <mxGeometry x="140" y="400" width="100" height="60" as="geometry" />
        </mxCell>
        <mxCell id="Ec5-KTIiF-ZfDrJX26kf-17" style="edgeStyle=orthogonalEdgeStyle;rounded=0;orthogonalLoop=1;jettySize=auto;html=1;" edge="1" parent="1" source="Ec5-KTIiF-ZfDrJX26kf-14">
          <mxGeometry relative="1" as="geometry">
            <mxPoint x="600" y="500" as="targetPoint" />
          </mxGeometry>
        </mxCell>
        <mxCell id="Ec5-KTIiF-ZfDrJX26kf-14" value="Even" style="shape=parallelogram;html=1;strokeWidth=2;perimeter=parallelogramPerimeter;whiteSpace=wrap;rounded=1;arcSize=12;size=0.23;" vertex="1" parent="1">
          <mxGeometry x="550" y="400" width="100" height="60" as="geometry" />
        </mxCell>
        <mxCell id="Ec5-KTIiF-ZfDrJX26kf-18" value="" style="endArrow=classic;html=1;rounded=0;" edge="1" parent="1">
          <mxGeometry width="50" height="50" relative="1" as="geometry">
            <mxPoint x="190" y="500" as="sourcePoint" />
            <mxPoint x="390" y="500" as="targetPoint" />
          </mxGeometry>
        </mxCell>
        <mxCell id="Ec5-KTIiF-ZfDrJX26kf-19" value="" style="endArrow=classic;html=1;rounded=0;" edge="1" parent="1">
          <mxGeometry width="50" height="50" relative="1" as="geometry">
            <mxPoint x="600" y="500" as="sourcePoint" />
            <mxPoint x="390" y="500" as="targetPoint" />
          </mxGeometry>
        </mxCell>
        <mxCell id="Ec5-KTIiF-ZfDrJX26kf-20" value="" style="endArrow=classic;html=1;rounded=0;" edge="1" parent="1">
          <mxGeometry width="50" height="50" relative="1" as="geometry">
            <mxPoint x="390" y="500" as="sourcePoint" />
            <mxPoint x="390" y="540" as="targetPoint" />
          </mxGeometry>
        </mxCell>
        <mxCell id="Ec5-KTIiF-ZfDrJX26kf-21" value="STOP" style="strokeWidth=2;html=1;shape=mxgraph.flowchart.start_2;whiteSpace=wrap;" vertex="1" parent="1">
          <mxGeometry x="340" y="535" width="100" height="100" as="geometry" />
        </mxCell>
      </root>
    </mxGraphModel>
  </diagram>
</mxfile>
